<?xml version="1.0" encoding="UTF-8" standalone="no"?>
<!-- Created with Inkscape (http://www.inkscape.org/) -->

<svg
   xmlns:dc="http://purl.org/dc/elements/1.1/"
   xmlns:cc="http://creativecommons.org/ns#"
   xmlns:rdf="http://www.w3.org/1999/02/22-rdf-syntax-ns#"
   xmlns:svg="http://www.w3.org/2000/svg"
   xmlns="http://www.w3.org/2000/svg"
   xmlns:sodipodi="http://sodipodi.sourceforge.net/DTD/sodipodi-0.dtd"
   xmlns:inkscape="http://www.inkscape.org/namespaces/inkscape"
   version="1.1"
   id="svg2624"
   xml:space="preserve"
   width="1821.3333"
   height="1024"
   viewBox="0 0 1821.3333 1024"
   sodipodi:docname="background undersider.svg"
   inkscape:version="0.92.2 (5c3e80d, 2017-08-06)"><metadata
     id="metadata2630"><rdf:RDF><cc:Work
         rdf:about=""><dc:format>image/svg+xml</dc:format><dc:type
           rdf:resource="http://purl.org/dc/dcmitype/StillImage" /><dc:title></dc:title></cc:Work></rdf:RDF></metadata><defs
     id="defs2628"><clipPath
       clipPathUnits="userSpaceOnUse"
       id="clipPath2642"><path
         d="M 0,768 H 1366 V 0 H 0 Z"
         id="path2640"
         inkscape:connector-curvature="0" /></clipPath><clipPath
       clipPathUnits="userSpaceOnUse"
       id="clipPath2650"><path
         d="M 1087.96,604.722 H 1132 v -44.043 h -44.04 z"
         id="path2648"
         inkscape:connector-curvature="0" /></clipPath><clipPath
       clipPathUnits="userSpaceOnUse"
       id="clipPath2666"><path
         d="M 192.957,518.722 H 240 v -47.043 h -47.043 z"
         id="path2664"
         inkscape:connector-curvature="0" /></clipPath><clipPath
       clipPathUnits="userSpaceOnUse"
       id="clipPath2682"><path
         d="M 49.9566,100.722 H 94 V 56.6786 H 49.9566 Z"
         id="path2680"
         inkscape:connector-curvature="0" /></clipPath><clipPath
       clipPathUnits="userSpaceOnUse"
       id="clipPath2698"><path
         d="m 116.957,255.394 h 69.715 v -69.715 h -69.715 z"
         id="path2696"
         inkscape:connector-curvature="0" /></clipPath><clipPath
       clipPathUnits="userSpaceOnUse"
       id="clipPath2714"><path
         d="M 82.9566,626.722 H 127 V 582.679 H 82.9566 Z"
         id="path2712"
         inkscape:connector-curvature="0" /></clipPath><clipPath
       clipPathUnits="userSpaceOnUse"
       id="clipPath2730"><path
         d="m 1213.96,140.117 h 76.44 V 63.6786 h -76.44 z"
         id="path2728"
         inkscape:connector-curvature="0" /></clipPath><clipPath
       clipPathUnits="userSpaceOnUse"
       id="clipPath2746"><path
         d="M 1229.96,261.722 H 1274 v -44.043 h -44.04 z"
         id="path2744"
         inkscape:connector-curvature="0" /></clipPath><clipPath
       clipPathUnits="userSpaceOnUse"
       id="clipPath2762"><path
         d="M 1235.96,654.722 H 1280 v -44.043 h -44.04 z"
         id="path2760"
         inkscape:connector-curvature="0" /></clipPath><clipPath
       clipPathUnits="userSpaceOnUse"
       id="clipPath2778"><path
         d="m 1.5,767.25 h 1366 V 0 H 1.5 Z"
         id="path2776"
         inkscape:connector-curvature="0" /></clipPath><clipPath
       clipPathUnits="userSpaceOnUse"
       id="clipPath2792"><path
         d="M 82.9566,401.722 H 127 V 357.679 H 82.9566 Z"
         id="path2790"
         inkscape:connector-curvature="0" /></clipPath><clipPath
       clipPathUnits="userSpaceOnUse"
       id="clipPath2808"><path
         d="m 1176.96,492.222 h 55.54 v -55.543 h -55.54 z"
         id="path2806"
         inkscape:connector-curvature="0" /></clipPath><clipPath
       clipPathUnits="userSpaceOnUse"
       id="clipPath2824"><path
         d="m 0,768.25 h 1366 v -42 H 0 Z"
         id="path2822"
         inkscape:connector-curvature="0" /></clipPath><clipPath
       clipPathUnits="userSpaceOnUse"
       id="clipPath2838"><path
         d="M 448.657,727 H 917.343 V 682 H 448.657 Z"
         id="path2836"
         inkscape:connector-curvature="0" /></clipPath><clipPath
       clipPathUnits="userSpaceOnUse"
       id="clipPath2854"><path
         d="m 287,726.509 h 794.11 V -1.25238 H 287 Z"
         id="path2852"
         inkscape:connector-curvature="0" /></clipPath><clipPath
       clipPathUnits="userSpaceOnUse"
       id="clipPath2874"><path
         d="M 568.5,644.078 H 808.563 V 599.573 H 568.5 Z"
         id="path2872"
         inkscape:connector-curvature="0" /></clipPath><clipPath
       clipPathUnits="userSpaceOnUse"
       id="clipPath2926"><path
         d="M 0,768 H 1366 V 0 H 0 Z"
         id="path2924"
         inkscape:connector-curvature="0" /></clipPath><clipPath
       clipPathUnits="userSpaceOnUse"
       id="clipPath2954"><path
         d="M 0,768 H 1366 V 0 H 0 Z"
         id="path2952"
         inkscape:connector-curvature="0" /></clipPath><clipPath
       clipPathUnits="userSpaceOnUse"
       id="clipPath2994"><path
         d="M 0,768 H 1366 V 0 H 0 Z"
         id="path2992"
         inkscape:connector-curvature="0" /></clipPath><clipPath
       clipPathUnits="userSpaceOnUse"
       id="clipPath3002"><path
         d="m 329.5,583.179 h 312 V 35.1786 h -312 z"
         id="path3000"
         inkscape:connector-curvature="0" /></clipPath><clipPath
       clipPathUnits="userSpaceOnUse"
       id="clipPath3016"><path
         d="m 703.5,583.179 h 312 V 35.1786 h -312 z"
         id="path3014"
         inkscape:connector-curvature="0" /></clipPath><clipPath
       clipPathUnits="userSpaceOnUse"
       id="clipPath3038"><path
         d="M 0,768 H 1366 V 0 H 0 Z"
         id="path3036"
         inkscape:connector-curvature="0" /></clipPath><clipPath
       clipPathUnits="userSpaceOnUse"
       id="clipPath3058"><path
         d="M 0,768 H 1366 V 0 H 0 Z"
         id="path3056"
         inkscape:connector-curvature="0" /></clipPath><clipPath
       clipPathUnits="userSpaceOnUse"
       id="clipPath3074"><path
         d="M 0,768 H 1366 V 0 H 0 Z"
         id="path3072"
         inkscape:connector-curvature="0" /></clipPath></defs><sodipodi:namedview
     pagecolor="#ffffff"
     bordercolor="#666666"
     borderopacity="1"
     objecttolerance="10"
     gridtolerance="10"
     guidetolerance="10"
     inkscape:pageopacity="0"
     inkscape:pageshadow="2"
     inkscape:window-width="1920"
     inkscape:window-height="1017"
     id="namedview2626"
     showgrid="false"
     inkscape:zoom="0.76798137"
     inkscape:cx="860.40453"
     inkscape:cy="477.207"
     inkscape:window-x="-8"
     inkscape:window-y="-8"
     inkscape:window-maximized="1"
     inkscape:current-layer="g2638" /><g
     id="g2632"
     inkscape:groupmode="layer"
     inkscape:label="background undersider"
     transform="matrix(1.3333333,0,0,-1.3333333,0,1024)"><path
       d="M 0,0.25 H 1366 V 768 H 0 Z"
       style="fill:#111719;fill-opacity:1;fill-rule:nonzero;stroke:none"
       id="path2634"
       inkscape:connector-curvature="0" /><g
       id="g2636"><g
         id="g2638"
         clip-path="url(#clipPath2642)"><g
           id="g2644"><g
             id="g2646" /><g
             id="g2658"><g
               clip-path="url(#clipPath2650)"
               id="g2656"
               style="opacity:0.80000299"><g
                 transform="translate(1087.9565,582.7004)"
                 id="g2654"><path
                   d="m 0,0 c 0,12.162 9.859,22.022 22.022,22.022 12.162,0 22.021,-9.86 22.021,-22.022 0,-12.162 -9.859,-22.022 -22.021,-22.022 C 9.859,-22.022 0,-12.162 0,0"
                   style="fill:#b5b5b7;fill-opacity:1;fill-rule:nonzero;stroke:none"
                   id="path2652"
                   inkscape:connector-curvature="0" /></g></g></g></g><g
           id="g2660"><g
             id="g2662" /><g
             id="g2674"><g
               clip-path="url(#clipPath2666)"
               id="g2672"
               style="opacity:0.80000299"><g
                 transform="translate(192.9565,495.2003)"
                 id="g2670"><path
                   d="M 0,0 C 0,12.991 10.531,23.522 23.522,23.522 36.512,23.522 47.043,12.991 47.043,0 47.043,-12.991 36.512,-23.522 23.522,-23.522 10.531,-23.522 0,-12.991 0,0"
                   style="fill:#b5b5b7;fill-opacity:1;fill-rule:nonzero;stroke:none"
                   id="path2668"
                   inkscape:connector-curvature="0" /></g></g></g></g><g
           id="g2676"><g
             id="g2678" /><g
             id="g2690"><g
               clip-path="url(#clipPath2682)"
               id="g2688"
               style="opacity:0.30000299"><g
                 transform="translate(49.9566,78.7004)"
                 id="g2686"><path
                   d="m 0,0 c 0,12.162 9.859,22.022 22.022,22.022 12.162,0 22.021,-9.86 22.021,-22.022 0,-12.162 -9.859,-22.022 -22.021,-22.022 C 9.859,-22.022 0,-12.162 0,0"
                   style="fill:#b5b5b7;fill-opacity:1;fill-rule:nonzero;stroke:none"
                   id="path2684"
                   inkscape:connector-curvature="0" /></g></g></g></g><g
           id="g2692"><g
             id="g2694" /><g
             id="g2706"><g
               clip-path="url(#clipPath2698)"
               id="g2704"
               style="opacity:0.60000598"><g
                 transform="translate(116.9566,220.5363)"
                 id="g2702"><path
                   d="M 0,0 C 0,19.251 15.606,34.858 34.858,34.858 54.109,34.858 69.715,19.251 69.715,0 69.715,-19.251 54.109,-34.858 34.858,-34.858 15.606,-34.858 0,-19.251 0,0"
                   style="fill:#b5b5b7;fill-opacity:1;fill-rule:nonzero;stroke:none"
                   id="path2700"
                   inkscape:connector-curvature="0" /></g></g></g></g><g
           id="g2708"><g
             id="g2710" /><g
             id="g2722"><g
               clip-path="url(#clipPath2714)"
               id="g2720"
               style="opacity:0.30000299"><g
                 transform="translate(82.9566,604.7004)"
                 id="g2718"><path
                   d="m 0,0 c 0,12.162 9.859,22.022 22.022,22.022 12.162,0 22.021,-9.86 22.021,-22.022 0,-12.162 -9.859,-22.022 -22.021,-22.022 C 9.859,-22.022 0,-12.162 0,0"
                   style="fill:#b5b5b7;fill-opacity:1;fill-rule:nonzero;stroke:none"
                   id="path2716"
                   inkscape:connector-curvature="0" /></g></g></g></g><g
           id="g2724"><g
             id="g2726" /><g
             id="g2738"><g
               clip-path="url(#clipPath2730)"
               id="g2736"
               style="opacity:0.60000598"><g
                 transform="translate(1213.9565,101.898)"
                 id="g2734"><path
                   d="m 0,0 c 0,21.108 17.111,38.219 38.219,38.219 21.108,0 38.22,-17.111 38.22,-38.219 0,-21.108 -17.112,-38.219 -38.22,-38.219 C 17.111,-38.219 0,-21.108 0,0"
                   style="fill:#b5b5b7;fill-opacity:1;fill-rule:nonzero;stroke:none"
                   id="path2732"
                   inkscape:connector-curvature="0" /></g></g></g></g><g
           id="g2740"><g
             id="g2742" /><g
             id="g2754"><g
               clip-path="url(#clipPath2746)"
               id="g2752"
               style="opacity:0.80000299"><g
                 transform="translate(1229.9565,239.7004)"
                 id="g2750"><path
                   d="m 0,0 c 0,12.162 9.859,22.022 22.022,22.022 12.162,0 22.021,-9.86 22.021,-22.022 0,-12.162 -9.859,-22.022 -22.021,-22.022 C 9.859,-22.022 0,-12.162 0,0"
                   style="fill:#b5b5b7;fill-opacity:1;fill-rule:nonzero;stroke:none"
                   id="path2748"
                   inkscape:connector-curvature="0" /></g></g></g></g><g
           id="g2756"><g
             id="g2758" /><g
             id="g2770"><g
               clip-path="url(#clipPath2762)"
               id="g2768"
               style="opacity:0.60000598"><g
                 transform="translate(1235.9565,632.7004)"
                 id="g2766"><path
                   d="m 0,0 c 0,12.162 9.859,22.022 22.022,22.022 12.162,0 22.021,-9.86 22.021,-22.022 0,-12.162 -9.859,-22.022 -22.021,-22.022 C 9.859,-22.022 0,-12.162 0,0"
                   style="fill:#b5b5b7;fill-opacity:1;fill-rule:nonzero;stroke:none"
                   id="path2764"
                   inkscape:connector-curvature="0" /></g></g></g></g><g
           id="g2772"><g
             id="g2774" /><g
             id="g2784"><g
               clip-path="url(#clipPath2778)"
               id="g2782"
               style="opacity:0.30000299"><path
                 d="M 1367.5,0 H 1.5 v 767.25 h 1366 z"
                 style="fill:#111719;fill-opacity:1;fill-rule:nonzero;stroke:none"
                 id="path2780"
                 inkscape:connector-curvature="0" /></g></g></g><g
           id="g2786"><g
             id="g2788" /><g
             id="g2800"><g
               clip-path="url(#clipPath2792)"
               id="g2798"
               style="opacity:0.60000598"><g
                 transform="translate(82.9566,379.7003)"
                 id="g2796"><path
                   d="m 0,0 c 0,12.162 9.859,22.022 22.022,22.022 12.162,0 22.021,-9.86 22.021,-22.022 0,-12.162 -9.859,-22.022 -22.021,-22.022 C 9.859,-22.022 0,-12.162 0,0"
                   style="fill:#b5b5b7;fill-opacity:1;fill-rule:nonzero;stroke:none"
                   id="path2794"
                   inkscape:connector-curvature="0" /></g></g></g></g><g
           id="g2802"><g
             id="g2804" /><g
             id="g2816"><g
               clip-path="url(#clipPath2808)"
               id="g2814"
               style="opacity:0.80000299"><g
                 transform="translate(1176.9565,464.4503)"
                 id="g2812"><path
                   d="M 0,0 C 0,15.338 12.434,27.772 27.772,27.772 43.11,27.772 55.543,15.338 55.543,0 55.543,-15.338 43.11,-27.772 27.772,-27.772 12.434,-27.772 0,-15.338 0,0"
                   style="fill:#b5b5b7;fill-opacity:1;fill-rule:nonzero;stroke:none"
                   id="path2810"
                   inkscape:connector-curvature="0" /></g></g></g></g></g></g><g
       id="g2980"
       transform="translate(684.5004,689.0004)"><path
         d="M 0,0 V 27 Z"
         style="fill:#ffffff;fill-opacity:1;fill-rule:nonzero;stroke:none"
         id="path2982"
         inkscape:connector-curvature="0" /></g></g></svg>