<?xml version="1.0" encoding="UTF-8" standalone="no"?>
<!-- Created with Inkscape (http://www.inkscape.org/) -->

<svg
   xmlns:dc="http://purl.org/dc/elements/1.1/"
   xmlns:cc="http://creativecommons.org/ns#"
   xmlns:rdf="http://www.w3.org/1999/02/22-rdf-syntax-ns#"
   xmlns:svg="http://www.w3.org/2000/svg"
   xmlns="http://www.w3.org/2000/svg"
   xmlns:sodipodi="http://sodipodi.sourceforge.net/DTD/sodipodi-0.dtd"
   xmlns:inkscape="http://www.inkscape.org/namespaces/inkscape"
   version="1.1"
   id="svg8373"
   xml:space="preserve"
   width="1821.3333"
   height="1024"
   viewBox="0 0 1821.3333 1024"
   sodipodi:docname="background forside.svg"
   inkscape:version="0.92.2 (5c3e80d, 2017-08-06)"
   inkscape:export-filename="C:\Users\Erling\Desktop\NTNU\IT1901 - Informatikk prosjektarbeid\Design for nettsiden\DarkTheme\path8383.png"
   inkscape:export-xdpi="96"
   inkscape:export-ydpi="96"><metadata
     id="metadata8379"><rdf:RDF><cc:Work
         rdf:about=""><dc:format>image/svg+xml</dc:format><dc:type
           rdf:resource="http://purl.org/dc/dcmitype/StillImage" /><dc:title></dc:title></cc:Work></rdf:RDF></metadata><defs
     id="defs8377"><clipPath
       clipPathUnits="userSpaceOnUse"
       id="clipPath8391"><path
         d="M 0,768 H 1366 V 0 H 0 Z"
         id="path8389"
         inkscape:connector-curvature="0" /></clipPath><clipPath
       clipPathUnits="userSpaceOnUse"
       id="clipPath8399"><path
         d="M 1087.96,604.722 H 1132 v -44.043 h -44.04 z"
         id="path8397"
         inkscape:connector-curvature="0" /></clipPath><clipPath
       clipPathUnits="userSpaceOnUse"
       id="clipPath8415"><path
         d="M 1003.96,454.722 H 1074 v -70.043 h -70.04 z"
         id="path8413"
         inkscape:connector-curvature="0" /></clipPath><clipPath
       clipPathUnits="userSpaceOnUse"
       id="clipPath8431"><path
         d="M 192.957,518.722 H 240 v -47.043 h -47.043 z"
         id="path8429"
         inkscape:connector-curvature="0" /></clipPath><clipPath
       clipPathUnits="userSpaceOnUse"
       id="clipPath8447"><path
         d="M 340.679,667 H 412 v -71.321 h -71.321 z"
         id="path8445"
         inkscape:connector-curvature="0" /></clipPath><clipPath
       clipPathUnits="userSpaceOnUse"
       id="clipPath8463"><path
         d="M 914.957,85.7221 H 959 V 41.6786 h -44.043 z"
         id="path8461"
         inkscape:connector-curvature="0" /></clipPath><clipPath
       clipPathUnits="userSpaceOnUse"
       id="clipPath8479"><path
         d="M 49.9566,100.722 H 94 V 56.6786 H 49.9566 Z"
         id="path8477"
         inkscape:connector-curvature="0" /></clipPath><clipPath
       clipPathUnits="userSpaceOnUse"
       id="clipPath8495"><path
         d="m 116.957,255.394 h 69.715 v -69.715 h -69.715 z"
         id="path8493"
         inkscape:connector-curvature="0" /></clipPath><clipPath
       clipPathUnits="userSpaceOnUse"
       id="clipPath8511"><path
         d="M 377.957,93.7221 H 422 V 49.6786 h -44.043 z"
         id="path8509"
         inkscape:connector-curvature="0" /></clipPath><clipPath
       clipPathUnits="userSpaceOnUse"
       id="clipPath8527"><path
         d="M 82.9566,626.722 H 127 V 582.679 H 82.9566 Z"
         id="path8525"
         inkscape:connector-curvature="0" /></clipPath><clipPath
       clipPathUnits="userSpaceOnUse"
       id="clipPath8543"><path
         d="m 1213.96,140.117 h 76.44 V 63.6786 h -76.44 z"
         id="path8541"
         inkscape:connector-curvature="0" /></clipPath><clipPath
       clipPathUnits="userSpaceOnUse"
       id="clipPath8559"><path
         d="M 1229.96,261.722 H 1274 v -44.043 h -44.04 z"
         id="path8557"
         inkscape:connector-curvature="0" /></clipPath><clipPath
       clipPathUnits="userSpaceOnUse"
       id="clipPath8575"><path
         d="M 965.957,632.722 H 1010 v -44.043 h -44.043 z"
         id="path8573"
         inkscape:connector-curvature="0" /></clipPath><clipPath
       clipPathUnits="userSpaceOnUse"
       id="clipPath8591"><path
         d="M 1235.96,654.722 H 1280 v -44.043 h -44.04 z"
         id="path8589"
         inkscape:connector-curvature="0" /></clipPath><clipPath
       clipPathUnits="userSpaceOnUse"
       id="clipPath8607"><path
         d="M 408.521,608 H 959.479 V 57.0417 H 408.521 Z"
         id="path8605"
         inkscape:connector-curvature="0" /></clipPath><clipPath
       clipPathUnits="userSpaceOnUse"
       id="clipPath8611"><path
         d="M 408.521,608 H 959.479 V 57.0417 H 408.521 Z"
         id="path8609"
         inkscape:connector-curvature="0" /></clipPath><clipPath
       clipPathUnits="userSpaceOnUse"
       id="clipPath8715"><path
         d="M 0,768 H 1366 V 0 H 0 Z"
         id="path8713"
         inkscape:connector-curvature="0" /></clipPath><clipPath
       clipPathUnits="userSpaceOnUse"
       id="clipPath8723"><path
         d="m 741.049,550.288 h 18.552 v -28.466 h -18.552 z"
         id="path8721"
         inkscape:connector-curvature="0" /></clipPath><clipPath
       clipPathUnits="userSpaceOnUse"
       id="clipPath8739"><path
         d="m 769.61,558.535 h 12.225 V 519.602 H 769.61 Z"
         id="path8737"
         inkscape:connector-curvature="0" /></clipPath><clipPath
       clipPathUnits="userSpaceOnUse"
       id="clipPath8755"><path
         d="m 764.953,549.484 h 7.754 V 525.64 h -7.754 z"
         id="path8753"
         inkscape:connector-curvature="0" /></clipPath><clipPath
       clipPathUnits="userSpaceOnUse"
       id="clipPath8771"><path
         d="m 584.558,558.14 h 51.183 v -47.184 h -51.183 z"
         id="path8769"
         inkscape:connector-curvature="0" /></clipPath><clipPath
       clipPathUnits="userSpaceOnUse"
       id="clipPath8787"><path
         d="M 466.327,449.979 H 517.51 V 398.796 H 466.327 Z"
         id="path8785"
         inkscape:connector-curvature="0" /></clipPath><clipPath
       clipPathUnits="userSpaceOnUse"
       id="clipPath8803"><path
         d="m 869.091,442.654 h 31.094 V 406.12 h -31.094 z"
         id="path8801"
         inkscape:connector-curvature="0" /></clipPath><clipPath
       clipPathUnits="userSpaceOnUse"
       id="clipPath8819"><path
         d="m 849.802,447.821 h 36.535 v -46.868 h -36.535 z"
         id="path8817"
         inkscape:connector-curvature="0" /></clipPath><clipPath
       clipPathUnits="userSpaceOnUse"
       id="clipPath8835"><path
         d="m 735.269,183.782 h 48.663 v -48.664 h -48.663 z"
         id="path8833"
         inkscape:connector-curvature="0" /></clipPath><clipPath
       clipPathUnits="userSpaceOnUse"
       id="clipPath8851"><path
         d="m 745.705,170.335 h 28.122 v -21.77 h -28.122 z"
         id="path8849"
         inkscape:connector-curvature="0" /></clipPath><clipPath
       clipPathUnits="userSpaceOnUse"
       id="clipPath8867"><path
         d="m 863.49,275.69 h 38.202 V 248.07 H 863.49 Z"
         id="path8865"
         inkscape:connector-curvature="0" /></clipPath><clipPath
       clipPathUnits="userSpaceOnUse"
       id="clipPath8883"><path
         d="m 850.509,298.071 h 30.143 v -50.383 h -30.143 z"
         id="path8881"
         inkscape:connector-curvature="0" /></clipPath><clipPath
       clipPathUnits="userSpaceOnUse"
       id="clipPath8899"><path
         d="m 588.544,185.041 h 30.39 v -51.183 h -30.39 z"
         id="path8897"
         inkscape:connector-curvature="0" /></clipPath><clipPath
       clipPathUnits="userSpaceOnUse"
       id="clipPath8915"><path
         d="m 467.593,298.471 h 45.585 v -51.183 h -45.585 z"
         id="path8913"
         inkscape:connector-curvature="0" /></clipPath><clipPath
       clipPathUnits="userSpaceOnUse"
       id="clipPath8949"><path
         d="M 0,768 H 1366 V 0 H 0 Z"
         id="path8947"
         inkscape:connector-curvature="0" /></clipPath><clipPath
       clipPathUnits="userSpaceOnUse"
       id="clipPath8957"><path
         d="M -1.83105e-4,768 H 1366 V 0 H -1.83105e-4 Z"
         id="path8955"
         inkscape:connector-curvature="0" /></clipPath><clipPath
       clipPathUnits="userSpaceOnUse"
       id="clipPath8971"><path
         d="M 286.957,251.722 H 331 v -44.043 h -44.043 z"
         id="path8969"
         inkscape:connector-curvature="0" /></clipPath><clipPath
       clipPathUnits="userSpaceOnUse"
       id="clipPath8987"><path
         d="M 264.957,401.722 H 309 v -44.043 h -44.043 z"
         id="path8985"
         inkscape:connector-curvature="0" /></clipPath><clipPath
       clipPathUnits="userSpaceOnUse"
       id="clipPath9003"><path
         d="M 82.9566,401.722 H 127 V 357.679 H 82.9566 Z"
         id="path9001"
         inkscape:connector-curvature="0" /></clipPath><clipPath
       clipPathUnits="userSpaceOnUse"
       id="clipPath9019"><path
         d="m 1012.96,240.117 h 76.44 v -76.438 h -76.44 z"
         id="path9017"
         inkscape:connector-curvature="0" /></clipPath><clipPath
       clipPathUnits="userSpaceOnUse"
       id="clipPath9035"><path
         d="m 1176.96,492.222 h 55.54 v -55.543 h -55.54 z"
         id="path9033"
         inkscape:connector-curvature="0" /></clipPath><clipPath
       clipPathUnits="userSpaceOnUse"
       id="clipPath9051"><path
         d="M -0.656906,768.845 H 1365.34 v -42 H -0.656906 Z"
         id="path9049"
         inkscape:connector-curvature="0" /></clipPath><clipPath
       clipPathUnits="userSpaceOnUse"
       id="clipPath9065"><path
         d="m 448,727.5 h 468.686 v -45 H 448 Z"
         id="path9063"
         inkscape:connector-curvature="0" /></clipPath><clipPath
       clipPathUnits="userSpaceOnUse"
       id="clipPath9085"><path
         d="M 0,768 H 1366 V 0 H 0 Z"
         id="path9083"
         inkscape:connector-curvature="0" /></clipPath><clipPath
       clipPathUnits="userSpaceOnUse"
       id="clipPath9113"><path
         d="M 0,768 H 1366 V 0 H 0 Z"
         id="path9111"
         inkscape:connector-curvature="0" /></clipPath></defs><sodipodi:namedview
     pagecolor="#ffffff"
     bordercolor="#666666"
     borderopacity="1"
     objecttolerance="10"
     gridtolerance="10"
     guidetolerance="10"
     inkscape:pageopacity="0"
     inkscape:pageshadow="2"
     inkscape:window-width="1920"
     inkscape:window-height="1017"
     id="namedview8375"
     showgrid="false"
     inkscape:zoom="0.55129484"
     inkscape:cx="768.96691"
     inkscape:cy="555.75608"
     inkscape:window-x="-8"
     inkscape:window-y="-8"
     inkscape:window-maximized="1"
     inkscape:current-layer="g8381" /><g
     id="g8381"
     inkscape:groupmode="layer"
     inkscape:label="background forside"
     transform="matrix(1.3333333,0,0,-1.3333333,0,1024)"><path
       d="M 1,0 H 1366 V 767 H 1 Z"
       style="fill:#111719;fill-opacity:1;fill-rule:nonzero;stroke:none"
       id="path8383"
       inkscape:connector-curvature="0" /><g
       id="g8385"><g
         id="g8387"
         clip-path="url(#clipPath8391)"><g
           id="g8393"><g
             id="g8395" /><g
             id="g8407"><g
               clip-path="url(#clipPath8399)"
               id="g8405"
               style="opacity:0.80000299"><g
                 transform="translate(1087.9565,582.7004)"
                 id="g8403"><path
                   d="m 0,0 c 0,12.162 9.859,22.022 22.022,22.022 12.162,0 22.021,-9.86 22.021,-22.022 0,-12.162 -9.859,-22.022 -22.021,-22.022 C 9.859,-22.022 0,-12.162 0,0"
                   style="fill:#b5b5b7;fill-opacity:1;fill-rule:nonzero;stroke:none"
                   id="path8401"
                   inkscape:connector-curvature="0" /></g></g></g></g><g
           id="g8409"><g
             id="g8411" /><g
             id="g8423"><g
               clip-path="url(#clipPath8415)"
               id="g8421"
               style="opacity:0.60000598"><g
                 transform="translate(1003.9565,419.7003)"
                 id="g8419"><path
                   d="M 0,0 C 0,19.342 15.68,35.022 35.022,35.022 54.364,35.022 70.043,19.342 70.043,0 70.043,-19.342 54.364,-35.022 35.022,-35.022 15.68,-35.022 0,-19.342 0,0"
                   style="fill:#b5b5b7;fill-opacity:1;fill-rule:nonzero;stroke:none"
                   id="path8417"
                   inkscape:connector-curvature="0" /></g></g></g></g><g
           id="g8425"><g
             id="g8427" /><g
             id="g8439"><g
               clip-path="url(#clipPath8431)"
               id="g8437"
               style="opacity:0.80000299"><g
                 transform="translate(192.9565,495.2003)"
                 id="g8435"><path
                   d="M 0,0 C 0,12.991 10.531,23.522 23.522,23.522 36.512,23.522 47.043,12.991 47.043,0 47.043,-12.991 36.512,-23.522 23.522,-23.522 10.531,-23.522 0,-12.991 0,0"
                   style="fill:#b5b5b7;fill-opacity:1;fill-rule:nonzero;stroke:none"
                   id="path8433"
                   inkscape:connector-curvature="0" /></g></g></g></g><g
           id="g8441"><g
             id="g8443" /><g
             id="g8455"><g
               clip-path="url(#clipPath8447)"
               id="g8453"
               style="opacity:0.60000598"><g
                 transform="translate(340.6786,631.3393)"
                 id="g8451"><path
                   d="m 0,0 c 0,19.695 15.966,35.661 35.661,35.661 19.695,0 35.66,-15.966 35.66,-35.661 0,-19.695 -15.965,-35.661 -35.66,-35.661 C 15.966,-35.661 0,-19.695 0,0"
                   style="fill:#b5b5b7;fill-opacity:1;fill-rule:nonzero;stroke:none"
                   id="path8449"
                   inkscape:connector-curvature="0" /></g></g></g></g><g
           id="g8457"><g
             id="g8459" /><g
             id="g8471"><g
               clip-path="url(#clipPath8463)"
               id="g8469"
               style="opacity:0.30000299"><g
                 transform="translate(914.9565,63.7004)"
                 id="g8467"><path
                   d="m 0,0 c 0,12.162 9.859,22.022 22.022,22.022 12.162,0 22.021,-9.86 22.021,-22.022 0,-12.162 -9.859,-22.022 -22.021,-22.022 C 9.859,-22.022 0,-12.162 0,0"
                   style="fill:#b5b5b7;fill-opacity:1;fill-rule:nonzero;stroke:none"
                   id="path8465"
                   inkscape:connector-curvature="0" /></g></g></g></g><g
           id="g8473"><g
             id="g8475" /><g
             id="g8487"><g
               clip-path="url(#clipPath8479)"
               id="g8485"
               style="opacity:0.30000299"><g
                 transform="translate(49.9566,78.7004)"
                 id="g8483"><path
                   d="m 0,0 c 0,12.162 9.859,22.022 22.022,22.022 12.162,0 22.021,-9.86 22.021,-22.022 0,-12.162 -9.859,-22.022 -22.021,-22.022 C 9.859,-22.022 0,-12.162 0,0"
                   style="fill:#b5b5b7;fill-opacity:1;fill-rule:nonzero;stroke:none"
                   id="path8481"
                   inkscape:connector-curvature="0" /></g></g></g></g><g
           id="g8489"><g
             id="g8491" /><g
             id="g8503"><g
               clip-path="url(#clipPath8495)"
               id="g8501"
               style="opacity:0.60000598"><g
                 transform="translate(116.9566,220.5363)"
                 id="g8499"><path
                   d="M 0,0 C 0,19.251 15.606,34.858 34.858,34.858 54.109,34.858 69.715,19.251 69.715,0 69.715,-19.251 54.109,-34.858 34.858,-34.858 15.606,-34.858 0,-19.251 0,0"
                   style="fill:#b5b5b7;fill-opacity:1;fill-rule:nonzero;stroke:none"
                   id="path8497"
                   inkscape:connector-curvature="0" /></g></g></g></g><g
           id="g8505"><g
             id="g8507" /><g
             id="g8519"><g
               clip-path="url(#clipPath8511)"
               id="g8517"
               style="opacity:0.80000299"><g
                 transform="translate(377.9565,71.7004)"
                 id="g8515"><path
                   d="m 0,0 c 0,12.162 9.859,22.022 22.022,22.022 12.162,0 22.021,-9.86 22.021,-22.022 0,-12.162 -9.859,-22.022 -22.021,-22.022 C 9.859,-22.022 0,-12.162 0,0"
                   style="fill:#b5b5b7;fill-opacity:1;fill-rule:nonzero;stroke:none"
                   id="path8513"
                   inkscape:connector-curvature="0" /></g></g></g></g><g
           id="g8521"><g
             id="g8523" /><g
             id="g8535"><g
               clip-path="url(#clipPath8527)"
               id="g8533"
               style="opacity:0.30000299"><g
                 transform="translate(82.9566,604.7004)"
                 id="g8531"><path
                   d="m 0,0 c 0,12.162 9.859,22.022 22.022,22.022 12.162,0 22.021,-9.86 22.021,-22.022 0,-12.162 -9.859,-22.022 -22.021,-22.022 C 9.859,-22.022 0,-12.162 0,0"
                   style="fill:#b5b5b7;fill-opacity:1;fill-rule:nonzero;stroke:none"
                   id="path8529"
                   inkscape:connector-curvature="0" /></g></g></g></g><g
           id="g8537"><g
             id="g8539" /><g
             id="g8551"><g
               clip-path="url(#clipPath8543)"
               id="g8549"
               style="opacity:0.60000598"><g
                 transform="translate(1213.9565,101.898)"
                 id="g8547"><path
                   d="m 0,0 c 0,21.108 17.111,38.219 38.219,38.219 21.108,0 38.22,-17.111 38.22,-38.219 0,-21.108 -17.112,-38.219 -38.22,-38.219 C 17.111,-38.219 0,-21.108 0,0"
                   style="fill:#b5b5b7;fill-opacity:1;fill-rule:nonzero;stroke:none"
                   id="path8545"
                   inkscape:connector-curvature="0" /></g></g></g></g><g
           id="g8553"><g
             id="g8555" /><g
             id="g8567"><g
               clip-path="url(#clipPath8559)"
               id="g8565"
               style="opacity:0.80000299"><g
                 transform="translate(1229.9565,239.7004)"
                 id="g8563"><path
                   d="m 0,0 c 0,12.162 9.859,22.022 22.022,22.022 12.162,0 22.021,-9.86 22.021,-22.022 0,-12.162 -9.859,-22.022 -22.021,-22.022 C 9.859,-22.022 0,-12.162 0,0"
                   style="fill:#b5b5b7;fill-opacity:1;fill-rule:nonzero;stroke:none"
                   id="path8561"
                   inkscape:connector-curvature="0" /></g></g></g></g><g
           id="g8569"><g
             id="g8571" /><g
             id="g8583"><g
               clip-path="url(#clipPath8575)"
               id="g8581"
               style="opacity:0.30000299"><g
                 transform="translate(965.9565,610.7004)"
                 id="g8579"><path
                   d="m 0,0 c 0,12.162 9.859,22.022 22.022,22.022 12.162,0 22.021,-9.86 22.021,-22.022 0,-12.162 -9.859,-22.022 -22.021,-22.022 C 9.859,-22.022 0,-12.162 0,0"
                   style="fill:#b5b5b7;fill-opacity:1;fill-rule:nonzero;stroke:none"
                   id="path8577"
                   inkscape:connector-curvature="0" /></g></g></g></g><g
           id="g8585"><g
             id="g8587" /><g
             id="g8599"><g
               clip-path="url(#clipPath8591)"
               id="g8597"
               style="opacity:0.60000598"><g
                 transform="translate(1235.9565,632.7004)"
                 id="g8595"><path
                   d="m 0,0 c 0,12.162 9.859,22.022 22.022,22.022 12.162,0 22.021,-9.86 22.021,-22.022 0,-12.162 -9.859,-22.022 -22.021,-22.022 C 9.859,-22.022 0,-12.162 0,0"
                   style="fill:#b5b5b7;fill-opacity:1;fill-rule:nonzero;stroke:none"
                   id="path8593"
                   inkscape:connector-curvature="0" /></g></g></g></g><g
           id="g8601"><g
             id="g8603" /></g></g></g></g></svg>